HIERARCHY
ROOT root
{
	OFFSET 0.000000 0.000000 0.000000
	CHANNELS 6 Xposition Yposition Zposition Zrotation Yrotation Xrotation
	JOINT lhip
	{
		OFFSET 0.058581 -0.082280 -0.017664
		CHANNELS 3 Zrotation Yrotation Xrotation
		JOINT lknee
		{
			OFFSET 0.043451 -0.386469 0.008037
			CHANNELS 3 Zrotation Yrotation Xrotation
			JOINT lankle
			{
				OFFSET -0.014790 -0.426874 -0.037428
				CHANNELS 3 Zrotation Yrotation Xrotation
				JOINT ltoe
				{
					OFFSET 0.041054 -0.060286 0.122042
					CHANNELS 3 Zrotation Yrotation Xrotation
					End Site
					{
						OFFSET 0.000000 0.000000 0.000000
					}
				}
			}
		}
	}
	JOINT rhip
	{
		OFFSET -0.060310 -0.090513 -0.013543
		CHANNELS 3 Zrotation Yrotation Xrotation
		JOINT rknee
		{
			OFFSET -0.043257 -0.383688 -0.004843
			CHANNELS 3 Zrotation Yrotation Xrotation
			JOINT rankle
			{
				OFFSET 0.019056 -0.420046 -0.034562
				CHANNELS 3 Zrotation Yrotation Xrotation
				JOINT rtoe
				{
					OFFSET -0.034840 -0.062106 0.130323
					CHANNELS 3 Zrotation Yrotation Xrotation
					End Site
					{
						OFFSET 0.000000 0.000000 0.000000
					}
				}
			}
		}
	}
	JOINT lowerback
	{
		OFFSET 0.004439 0.124404 -0.038385
		CHANNELS 3 Zrotation Yrotation Xrotation
		JOINT upperback
		{
			OFFSET 0.004488 0.137956 0.026820
			CHANNELS 3 Zrotation Yrotation Xrotation
			JOINT chest
			{
				OFFSET -0.002265 0.056032 0.002855
				CHANNELS 3 Zrotation Yrotation Xrotation
				JOINT lowerneck
				{
					OFFSET -0.013390 0.211636 -0.033468
					CHANNELS 3 Zrotation Yrotation Xrotation
					JOINT upperneck
					{
						OFFSET 0.010113 0.088937 0.050410
						CHANNELS 3 Zrotation Yrotation Xrotation
						End Site
						{
							OFFSET 0.000000 0.000000 0.000000
						}
					}
				}
				JOINT lclavicle
				{
					OFFSET 0.071702 0.114000 -0.018898
					CHANNELS 3 Zrotation Yrotation Xrotation
					JOINT lshoulder
					{
						OFFSET 0.122921 0.045205 -0.019046
						CHANNELS 3 Zrotation Yrotation Xrotation
						JOINT lelbow
						{
							OFFSET 0.255332 -0.015649 -0.022946
							CHANNELS 3 Zrotation Yrotation Xrotation
							JOINT lwrist
							{
								OFFSET 0.265709 0.012698 -0.007375
								CHANNELS 3 Zrotation Yrotation Xrotation
								End Site
								{
									OFFSET 0.000000 0.000000 0.000000
								}
							}
						}
					}
				}
				JOINT rclavicle
				{
					OFFSET -0.082954 0.112472 -0.023707
					CHANNELS 3 Zrotation Yrotation Xrotation
					JOINT rshoulder
					{
						OFFSET -0.113228 0.046853 -0.008472
						CHANNELS 3 Zrotation Yrotation Xrotation
						JOINT relbow
						{
							OFFSET -0.260127 -0.014369 -0.031269
							CHANNELS 3 Zrotation Yrotation Xrotation
							JOINT rwrist
							{
								OFFSET -0.269108 0.006794 -0.006027
								CHANNELS 3 Zrotation Yrotation Xrotation
								End Site
								{
									OFFSET 0.000000 0.000000 0.000000
								}
							}
						}
					}
				}
			}
		}
	}
}
MOTION
Frames: 14
Frame Time: 0.033333
-0.703888 0.318689 0.972439 -48.359784 -0.739868 85.677632 -2.510173 1.488743 9.147773 -4.533937 -7.067257 5.530969 6.592977 21.392842 -21.457010 0.000000 -0.000000 0.000000 -2.168074 8.607317 -22.530901 1.630436 7.344887 35.536028 3.555498 -5.138576 -11.952388 0.000000 -0.000000 0.000000 -1.263449 -5.348102 6.399127 0.728681 -6.736653 18.205591 -1.581351 -1.545912 -2.472568 -9.084354 31.392433 0.792469 -9.928380 37.730504 -5.379570 -25.291008 -8.841660 -2.007014 -58.851490 -5.778719 16.640987 19.557317 -38.461627 -10.534914 -0.487220 -7.846927 -8.034814 26.768581 5.770171 0.168173 55.371514 2.463662 17.588184 -18.017513 57.222148 -5.247119 -1.293076 10.978764 -1.466064 
-0.707026 0.317353 0.972932 -48.466206 -0.681374 85.520742 -2.414206 1.570625 9.842113 -4.412238 -7.248703 5.052842 6.523062 21.563446 -21.491862 0.000000 -0.000000 0.000000 -2.004169 8.710290 -21.955455 1.632279 7.225242 35.234018 3.501748 -5.129397 -12.123175 0.000000 -0.000000 0.000000 -1.261423 -5.328156 5.743629 0.892296 -6.691661 18.554167 -1.489490 -1.540144 -2.580818 -8.823496 31.300023 0.932522 -9.840597 37.752899 -5.244762 -25.323129 -8.677742 -1.873720 -59.034358 -5.666560 16.617658 19.399818 -38.516824 -10.274289 -0.632668 -7.840546 -7.926038 26.777821 5.704644 0.232326 55.366399 2.524555 17.526038 -18.147053 57.226555 -5.385217 -1.167398 11.021510 -1.429495 
-0.709887 0.316315 0.973225 -48.584265 -0.543380 85.413899 -2.193953 1.673870 10.413874 -4.333635 -7.351068 4.634175 6.422252 21.643325 -21.524590 0.000000 -0.000000 0.000000 -1.801942 8.803507 -21.481140 1.658515 7.055324 34.923007 3.472440 -5.073705 -12.250973 0.000000 -0.000000 0.000000 -1.173153 -5.375384 5.191866 1.074111 -6.676364 18.665501 -1.407196 -1.537329 -2.617735 -8.551184 31.291131 1.068423 -9.747389 37.739474 -5.058598 -25.342390 -8.480876 -1.778125 -59.266288 -5.531156 16.581787 19.228398 -38.502611 -10.069269 -0.841483 -7.866362 -7.735693 26.774169 5.646209 0.281639 55.339370 2.560630 17.452329 -18.153084 57.226694 -5.458068 -0.994175 11.055032 -1.356948 
-0.712672 0.315267 0.973632 -48.696332 -0.324044 85.353475 -1.882420 1.764431 10.906501 -4.267389 -7.421573 4.257807 6.279575 21.731888 -21.575421 0.000000 -0.000000 0.000000 -1.535534 8.817406 -21.011608 1.712695 6.917038 34.513067 3.437592 -4.990839 -12.309084 0.000000 -0.000000 0.000000 -0.979016 -5.403440 4.524464 1.280579 -6.749355 18.848813 -1.332863 -1.561597 -2.651018 -8.373713 31.228441 1.206953 -9.674329 37.782493 -4.876622 -25.441310 -8.340781 -1.651644 -59.477921 -5.397313 16.497466 19.092099 -38.437127 -9.946471 -0.922017 -7.837549 -7.530327 26.745600 5.568619 0.317901 55.273607 2.586055 17.309668 -18.008675 57.208536 -5.397489 -0.928713 11.098552 -1.232495 
-0.715319 0.314228 0.974192 -48.844894 -0.055810 85.350524 -1.521232 1.803788 11.296278 -4.240034 -7.365379 3.949780 6.151634 21.772224 -21.643792 0.000000 -0.000000 0.000000 -1.242475 8.785695 -20.596586 1.787687 6.789667 34.047201 3.421856 -4.856787 -12.290838 0.000000 -0.000000 0.000000 -0.739328 -5.421436 3.820528 1.522810 -6.878901 19.006121 -1.267371 -1.587938 -2.717107 -8.205342 31.171945 1.368736 -9.591877 37.812309 -4.677064 -25.568149 -8.168003 -1.529476 -59.740966 -5.240366 16.460842 19.018711 -38.295121 -9.816113 -1.039487 -7.838014 -7.387196 26.680999 5.458916 0.339216 55.279595 2.566029 17.241523 -18.036153 57.069594 -5.394491 -0.912323 11.180733 -1.222858 
-0.717774 0.313270 0.974671 -49.300220 0.125835 85.336538 -1.299620 1.941324 11.759143 -4.167223 -7.207486 3.516654 6.045888 21.863739 -21.661828 0.000000 -0.000000 0.000000 -1.012751 8.915924 -20.264650 1.869691 6.704975 33.654185 3.439507 -4.630169 -12.252428 0.000000 -0.000000 0.000000 -0.604312 -5.448349 3.204369 1.722372 -6.820600 19.112954 -1.199170 -1.565097 -2.821057 -7.898241 31.224698 1.543611 -9.523735 37.751854 -4.440780 -25.600680 -7.858137 -1.522126 -60.121344 -5.065778 16.502618 18.939625 -38.085489 -9.725814 -1.330131 -7.884293 -7.152873 26.644542 5.288134 0.348879 55.305665 2.546699 17.300410 -18.145043 56.855002 -5.456550 -0.800866 11.298426 -1.168400 
-0.720150 0.312144 0.975113 -49.966281 0.242071 85.297296 -1.192397 2.178193 12.331589 -4.048696 -7.024374 2.949941 5.953742 22.033163 -21.632565 0.000000 -0.000000 0.000000 -0.797036 9.059380 -19.941042 1.958426 6.779398 33.298462 3.481621 -4.346929 -12.199560 0.000000 -0.000000 0.000000 -0.518238 -5.424633 2.562685 1.881246 -6.694529 19.312306 -1.134245 -1.524017 -2.954054 -7.634352 31.285938 1.679463 -9.432253 37.751021 -4.309415 -25.650645 -7.561981 -1.490124 -60.457838 -4.870760 16.486887 18.826035 -37.941625 -9.586531 -1.614932 -7.896629 -6.933353 26.639314 5.089657 0.422532 55.201793 2.536977 17.252944 -17.972878 56.811465 -5.378541 -0.613574 11.351542 -1.019667 
-0.722003 0.311275 0.975369 -50.585411 0.384737 85.276821 -1.093347 2.354319 12.832456 -3.914575 -6.825031 2.402915 5.904795 22.224630 -21.584167 0.000000 -0.000000 0.000000 -0.613595 9.185446 -19.694809 2.090204 6.819674 32.961151 3.525841 -4.085396 -12.114745 0.000000 -0.000000 0.000000 -0.392284 -5.426920 2.000460 2.028789 -6.613672 19.418763 -1.075950 -1.518309 -3.012459 -7.411169 31.301104 1.698145 -9.253950 37.785206 -4.139716 -25.680729 -7.351067 -1.460443 -60.773213 -4.695290 16.476470 18.733482 -37.777314 -9.472679 -1.826285 -7.911230 -6.751300 26.634736 4.924008 0.440850 55.133306 2.519990 17.170160 -17.847739 56.769910 -5.385719 -0.388568 11.409879 -0.802852 
-0.723446 0.310468 0.975491 -51.241228 0.544166 85.325182 -1.001247 2.526994 13.196548 -3.783736 -6.545171 1.911704 5.861669 22.380078 -21.539274 0.000000 -0.000000 0.000000 -0.452153 9.282416 -19.593390 2.245412 6.874962 32.689358 3.568371 -3.776799 -12.024743 0.000000 -0.000000 0.000000 -0.235381 -5.467083 1.503044 2.187671 -6.570690 19.403642 -1.028560 -1.491442 -3.074046 -7.171489 31.343901 1.736380 -9.130662 37.816839 -3.996318 -25.733058 -7.124244 -1.490750 -61.057032 -4.448718 16.516112 18.614017 -37.590920 -9.337650 -2.057615 -7.929814 -6.579737 26.615900 4.744270 0.423118 55.062657 2.480933 17.130931 -17.735614 56.720725 -5.386713 -0.159512 11.441066 -0.624946 
-0.724463 0.309607 0.975642 -51.964181 0.695946 85.409287 -0.896742 2.725435 13.463246 -3.745700 -6.192465 1.500955 5.824017 22.460175 -21.527416 0.000000 -0.000000 0.000000 -0.304651 9.308885 -19.573951 2.401338 7.005677 32.422766 3.652659 -3.383266 -11.855860 0.000000 -0.000000 0.000000 -0.050154 -5.485186 0.981994 2.350158 -6.576167 19.433366 -0.993741 -1.474012 -3.178858 -6.968532 31.414915 1.777495 -9.007950 37.854327 -3.867716 -25.829016 -6.926587 -1.467197 -61.327738 -4.205488 16.507736 18.541321 -37.387821 -9.259762 -2.350852 -7.962868 -6.322528 26.604021 4.576168 0.450746 54.978660 2.466576 17.041681 -17.699961 56.681833 -5.506407 0.157969 11.486036 -0.423856 
-0.725003 0.308897 0.975784 -52.749723 0.805885 85.463307 -0.855089 2.909044 13.720356 -3.738484 -5.796861 1.114690 5.786191 22.565364 -21.499225 0.000000 -0.000000 0.000000 -0.171626 9.450179 -19.555195 2.502997 7.168363 32.169584 3.739943 -3.056163 -11.673747 0.000000 -0.000000 0.000000 0.091624 -5.511978 0.567868 2.500679 -6.549447 19.451536 -0.942660 -1.451697 -3.283351 -6.752037 31.489473 1.820613 -8.880834 37.874316 -3.715690 -25.858195 -6.758953 -1.423055 -61.646761 -4.014986 16.500326 18.457180 -37.133394 -9.173703 -2.600023 -7.987373 -6.107451 26.598107 4.445936 0.484909 54.898653 2.449246 16.968974 -17.723790 56.658453 -5.661126 0.396737 11.515059 -0.176837 
-0.725067 0.308230 0.975990 -53.573353 0.890500 85.496208 -0.895392 3.060832 13.978975 -3.712965 -5.409531 0.731863 5.767543 22.750585 -21.459072 0.000000 -0.000000 0.000000 -0.020987 9.682514 -19.519176 2.529825 7.412929 31.903928 3.832066 -2.807986 -11.439034 0.000000 -0.000000 0.000000 0.242566 -5.488789 0.131346 2.633020 -6.507273 19.584376 -0.878422 -1.471552 -3.369278 -6.603372 31.502275 1.827143 -8.750134 37.970472 -3.593103 -25.826821 -6.725589 -1.350280 -62.019233 -3.869681 16.493810 18.371648 -36.807037 -9.051894 -2.686202 -7.956182 -6.057238 26.578800 4.352440 0.419223 54.816013 2.407731 16.898320 -17.627656 56.639625 -5.645763 0.480266 11.509724 0.100055 
-0.724816 0.307517 0.976121 -54.412956 1.000431 85.566632 -0.943635 3.193266 14.167436 -3.663795 -5.001900 0.365179 5.755064 22.897521 -21.389705 0.000000 -0.000000 0.000000 0.172685 10.020845 -19.550332 2.486980 7.690531 31.668711 3.945263 -2.591289 -11.199772 0.000000 -0.000000 0.000000 0.372530 -5.548622 -0.186058 2.838871 -6.483538 19.514202 -0.778398 -1.439702 -3.443645 -6.357137 31.589801 1.932796 -8.617934 37.991626 -3.349945 -25.750036 -6.596572 -1.375589 -62.533928 -3.656117 16.604079 18.225723 -36.381139 -8.806405 -2.870387 -7.951267 -5.977118 26.534632 4.227572 0.374761 54.706734 2.334295 16.953424 -17.703017 56.623569 -5.757400 0.533005 11.545761 0.253122 
-0.724227 0.306825 0.976263 -55.249517 1.118165 85.638594 -0.989094 3.330301 14.319003 -3.638503 -4.588432 0.021678 5.755426 23.000365 -21.304984 0.000000 -0.000000 0.000000 0.357056 10.375633 -19.585661 2.431764 7.956802 31.403431 4.061215 -2.381929 -10.935967 0.000000 -0.000000 0.000000 0.487023 -5.631370 -0.411579 3.074316 -6.470863 19.371289 -0.656470 -1.398744 -3.509821 -6.056017 31.725526 2.048415 -8.499401 37.978847 -3.155646 -25.659380 -6.435012 -1.401021 -63.069778 -3.440080 16.741146 18.027890 -36.024175 -8.473714 -3.129919 -7.956142 -5.889165 26.485715 4.084739 0.359558 54.654857 2.288350 17.000485 -17.899829 56.608831 -5.970722 0.535985 11.571807 0.355820 
